# xmcd CD database file
#
# Track frame offsets:
#	150
#	22070
#	27565
#	50005
#	66165
#	93390
#	111095
#	134455
#	167365
#	187870
#	205235
#	221535
#	240795
#	259580
#	283660
#	307015
#
# Disc length: 4382 seconds
#
# Revision: 6
# Processed by: cddbd v1.5.2PL0 Copyright (c) Steve Scherf et al.
# Submitted via: CDex 1.70beta2
#
DISCID=e2111c10
DTITLE=Gary Moore - Greatest Hits
DYEAR=1990
DGENRE=Blues-Rock
TTITLE0=She's Got You
TTITLE1=Dirty Fingers
TTITLE2=Bad News
TTITLE3=Hot Gossip
TTITLE4=I Look At You
TTITLE5=The Woman In Love
TTITLE6=Nuclear Attack
TTITLE7=Parisiene Walkway
TTITLE8=Dancin'
TTITLE9=Kidnapped
TTITLE10=Don't Let Me Be Misunderstood
TTITLE11=You Kissed Me Sweetly
TTITLE12=You
TTITLE13=Back On The Street
TTITLE14=White Knuckles/Rockin' And Rollin'
TTITLE15=Run To Your Mama
EXTD=YEAR: 1990
EXTT0=
EXTT1=
EXTT2=
EXTT3=
EXTT4=
EXTT5=
EXTT6=
EXTT7=
EXTT8=
EXTT9=
EXTT10=
EXTT11=
EXTT12=
EXTT13=
EXTT14=
EXTT15=
PLAYORDER=
